<?xml version="1.0" encoding="utf-8"?>
<?xml-stylesheet type="text/xsl" href="rss1.xsl"?>
<rss version="2.0" xmlns:atom="http://www.w3.org/2005/Atom" xmlns:content="http://purl.org/rss/1.0/modules/content/" xmlns:dc="http://purl.org/dc/elements/1.1/" xmlns:media="http://search.yahoo.com/mrss/">
<channel>
 <title>Getty</title>
 <link>http://www.gettyimg.com/</link>
 <atom:link href="http://www.gettyimg.com/" rel="self" type="application/rss+xml" />

 
                <item>
                <title><![CDATA[【Apple Music】WEB-RiP - Drake - Rich Baby Daddy (feat. SEXXY RED &amp; SZA) [Apple HD Music Video]]]></title>
                <link><![CDATA[https://sharemania.us/threads/drake-rich-baby-daddy-feat-sexxy-red-sza-apple-hd-music-video.242343/]]></link>
                <description><![CDATA[<article>
<blockquote class="messageText SelectQuoteContainer ugc baseHtml">
<span style="font-size: 22px"><b>Drake - Rich Baby Daddy (feat. SEXXY RED &amp; SZA) [Apple HD Music Video]</b></span><br>
<br>
<img src="https://imgur.com/uMP7o5o.jpg" class="bbCodeImage LbImage" alt="[​IMG]" data-url="https://imgur.com/uMP7o5o.jpg" style=""><br>
<br>
<div class="bbCodeBlock bbCodeCode">
<div class="type">Code:</div>
<pre>General
Format                         : MPEG-4
Codec ID                       : M4V  (isom/iso4/M4V /mp42)
File size                      : 463 MiB
Duration                       : 6 min 30 s
Overall bit rate mode          : Variable
Overall bit rate               : 9 942 kb/s
Movie name                     : Rich Baby Daddy (feat. SEXXY RED &amp; SZA)
Performer                      : Drake
Genre                          : Hip-Hop/Rap
ContentType                    : Music Video
Recorded date                  : UTC 2024-02-14 08:00:00
Encoded date                   : UTC 2024-03-12 15:23:59
Tagged date                    : UTC 2024-03-12 15:23:59
Copyright                      : ℗ 2024 OVO, under exclusive license to Republic Records, a division of UMG Recordings, Inc.
Cover                          : Yes
Rating                         : Explicit
GenreID                        : 1618
AppleStoreCountry              : Canada
AlbumTitleID                   : 271256
AppleStoreCatalogID            : 1731033374

Video
ID                             : 2
Format                         : AVC
Format/Info                    : Advanced Video Codec
Format profile                 : High@L4
Format settings                : CABAC / 4 Ref Frames
Format settings, CABAC         : Yes
Format settings, Reference fra : 4 frames
Codec ID                       : avc1
Codec ID/Info                  : Advanced Video Coding
Duration                       : 6 min 30 s
Bit rate                       : 9 662 kb/s
Maximum bit rate               : 15.8 Mb/s
Width                          : 1 920 pixels
Height                         : 1 080 pixels
Display aspect ratio           : 16:9
Frame rate mode                : Constant
Frame rate                     : 23.976 (24000/1001) FPS
Color space                    : YUV
Chroma subsampling             : 4:2:0
Bit depth                      : 8 bits
Scan type                      : Progressive
Bits/(Pixel*Frame)             : 0.194
Stream size                    : 450 MiB (97%)
Title                          : Core Media Video
Encoded date                   : UTC 2024-02-22 17:06:27
Tagged date                    : UTC 2024-03-12 15:24:38
Color range                    : Limited
Color primaries                : BT.709
Transfer characteristics       : BT.709
Matrix coefficients            : BT.709
Codec configuration box        : avcC

Audio
ID                             : 1
Format                         : AAC LC
Format/Info                    : Advanced Audio Codec Low Complexity
Codec ID                       : mp4a-40-2
Duration                       : 6 min 30 s
Duration_LastFrame             : -6 ms
Bit rate mode                  : Variable
Bit rate                       : 265 kb/s
Maximum bit rate               : 478 kb/s
Channel(s)                     : 2 channels
Channel layout                 : L R
Sampling rate                  : 48.0 kHz
Frame rate                     : 46.875 FPS (1024 SPF)
Compression mode               : Lossy
Stream size                    : 12.2 MiB (3%)
Title                          : Core Media Audio
Encoded date                   : UTC 2024-02-22 17:06:19
Tagged date                    : UTC 2024-03-12 15:24:38
</pre>
</div>
<div class="bbCodeBlock bbCodeVfcHH HiddenContent">
<div class="attribution type">Hidden Content:</div>
<blockquote>You must reply before you can see the hidden data contained here.</blockquote>
</div>
<div class="messageTextEndMarker">&nbsp;</div>
</blockquote>
</article>]]></description>
                <author><![CDATA[abby0511]]></author>
                </item>

                
                <item>
                <title><![CDATA[【Requests】[REQ AUD] - Robyn - Discography]]></title>
                <link><![CDATA[https://sharemania.us/threads/robyn-discography.242344/]]></link>
                <description><![CDATA[<article>
<blockquote class="messageText SelectQuoteContainer ugc baseHtml">
Does anyone has the dicography of Robyn in itunes?
<div class="messageTextEndMarker">&nbsp;</div>
</blockquote>
</article>]]></description>
                <author><![CDATA[rapse]]></author>
                </item>

                </channel></rss>